<svg xmlns="http://www.w3.org/2000/svg" width="86.316" height="94.529" viewBox="0 0 86.316 94.529">
  <path id="Path_2505" data-name="Path 2505" d="M56.07,93.082h2.285v2.285H56.07Zm2.285-5.773H56.07v2.285h2.285Zm-1.082,9.26a4.33,4.33,0,1,0,4.33,4.33A4.39,4.39,0,0,0,57.273,96.57Zm1.082-76.489H56.07v2.285h2.285ZM56.07,28.139h2.285V25.854H56.07Zm1.2-8.779a4.33,4.33,0,1,0-4.33-4.33A4.312,4.312,0,0,0,57.273,19.359Zm32.592,56.4-1.2,2.045,2.045,1.2,1.2-2.045Zm-9.982-5.773,2.045,1.2-1.2,2.045-2.045-1.2.361-.6L58.235,83.461v.481h-.842l-.12.12-.241-.12H56.07v-.481L35.5,71.555l.241.481-2.045,1.2-1.2-2.045,2.045-1.2.481.722V47.261L33.7,46.539l1.2-2.045,1.082.6L56.07,33.43V31.506h2.285V33.43L78.56,45.1l1.2-.6,1.2,2.045-1.443.842V71.074ZM77.116,46.9,57.273,35.475,37.429,46.9V69.871L57.273,81.416,77.116,69.991Zm6.615,27.9L85.776,76l1.2-2.045-2.045-1.2Zm14.552,2.045a4.311,4.311,0,1,0,1.563,5.893A4.323,4.323,0,0,0,98.283,76.846ZM28.769,43.533l2.045,1.2,1.2-2.045-2.045-1.2Zm-4.931-2.766,2.045,1.2,1.2-2.045-2.045-1.2Zm-7.577-.722A4.311,4.311,0,1,0,14.7,34.152,4.323,4.323,0,0,0,16.262,40.045Zm6.374,36.8,1.2,2.045,2.045-1.2-1.2-2.045Zm5.051-2.886L28.89,76l2.045-1.2-1.2-2.045ZM16.262,76.846a4.311,4.311,0,1,0,5.893,1.563A4.371,4.371,0,0,0,16.262,76.846ZM85.776,43.533l-1.2-2.045-2.045,1.2,1.2,2.045Zm4.931-2.766-1.2-2.045-2.045,1.2,1.2,2.045Zm7.577-.722a4.311,4.311,0,1,0-5.893-1.563A4.266,4.266,0,0,0,98.283,40.045ZM45.246,50.388l12.027,6.975L69.3,50.388,57.273,43.412ZM44.284,65.9,56.19,72.757V59.287L44.284,52.432V65.9Zm14.191,6.855,11.786-6.735V52.553L58.475,59.287Z" transform="translate(-14.115 -10.7)" fill="#5763f3"/>
</svg>
